<?xml version="1.0" standalone="no"?>
<!DOCTYPE svg PUBLIC "-//W3C//DTD SVG 20010904//EN"
 "http://www.w3.org/TR/2001/REC-SVG-20010904/DTD/svg10.dtd">
<svg version="1.0" xmlns="http://www.w3.org/2000/svg"
 width="1461.000000pt" height="598.000000pt" viewBox="0 0 1461.000000 598.000000"
 preserveAspectRatio="xMidYMid meet">
<metadata>
Created by potrace 1.13, written by Peter Selinger 2001-2015
</metadata>
<g transform="translate(0.000000,598.000000) scale(0.100000,-0.100000)"
fill="#000000" stroke="none">
<path d="M2113 4443 l-53 -4 0 -200 0 -199 95 0 94 0 -52 -73 c-98 -137 -140
-262 -140 -422 0 -162 48 -302 150 -436 l50 -66 -44 -54 c-169 -211 -205 -497
-93 -738 32 -67 103 -173 139 -205 11 -11 21 -23 21 -27 0 -5 -86 -98 -191
-209 l-190 -200 134 0 135 0 127 133 126 132 127 -133 127 -132 134 0 133 0
-123 131 c-68 72 -155 164 -192 205 l-68 74 47 54 c109 123 170 268 182 432
l7 92 300 -431 c165 -237 319 -457 342 -489 l43 -58 260 0 c143 0 260 3 259 8
0 4 -195 275 -433 602 l-433 594 91 31 c122 41 205 93 297 185 92 92 151 188
191 312 26 80 31 113 36 229 9 272 -60 456 -235 627 -125 122 -301 194 -553
228 -98 13 -691 18 -847 7z m853 -418 c227 -46 349 -172 362 -371 9 -150 -36
-283 -121 -360 -58 -53 -168 -101 -271 -119 -92 -16 -260 -21 -254 -7 2 4 15
30 30 57 54 104 73 188 72 325 0 107 -4 137 -27 205 -27 82 -75 171 -128 237
-16 20 -29 42 -29 49 0 17 260 5 366 -16z m-493 -164 c20 -27 37 -52 37 -55 0
-3 -28 -6 -62 -8 -60 -3 -63 -4 -63 -28 0 -24 2 -25 77 -28 44 -2 80 -8 86
-15 12 -15 32 -98 32 -131 0 -25 -1 -25 -97 -28 -97 -3 -98 -3 -98 -28 0 -25
1 -25 98 -28 l97 -3 -1 -27 c0 -15 -8 -52 -17 -82 l-18 -55 -79 -5 c-77 -5
-80 -6 -80 -30 0 -23 4 -25 58 -28 31 -2 57 -7 57 -13 0 -5 -18 -29 -40 -52
l-41 -42 -38 44 c-37 42 -86 127 -93 161 -2 12 14 16 87 20 88 5 90 6 90 30 0
25 -1 25 -103 28 l-103 3 3 77 3 77 100 5 c99 5 100 5 100 30 0 25 -1 25 -92
28 -65 2 -93 6 -93 15 1 41 117 218 143 217 7 -1 29 -23 50 -49z m-7 -993 c20
-24 51 -74 70 -113 l32 -70 -91 -5 c-90 -5 -92 -6 -92 -30 0 -25 1 -25 98 -28
l97 -3 0 -84 0 -85 -89 0 c-92 0 -120 -12 -107 -45 4 -12 24 -15 91 -15 52 0
85 -4 85 -10 0 -34 -117 -210 -139 -210 -10 0 -81 89 -81 102 0 4 29 8 65 8
49 0 67 4 71 15 13 32 -15 45 -98 45 l-79 0 -13 33 c-8 17 -17 53 -20 79 l-7
47 108 3 c108 3 108 3 108 28 0 25 0 25 -109 28 l-109 3 7 46 c3 25 11 63 17
84 l12 38 91 3 c90 3 91 3 91 28 0 24 -3 25 -72 28 -40 2 -73 6 -73 9 0 11 81
113 90 113 4 0 25 -19 46 -42z"/>
<path d="M6230 3035 l0 -1415 368 0 c379 0 539 8 702 36 266 45 497 165 705
366 206 198 325 414 387 701 29 138 32 462 5 607 -104 557 -518 977 -1064
1080 -176 33 -307 40 -715 40 l-388 0 0 -1415z m885 990 c379 -57 616 -218
770 -524 98 -195 125 -511 65 -746 -75 -294 -298 -542 -585 -650 -129 -49
-240 -66 -482 -72 l-223 -6 0 1007 0 1006 178 0 c106 0 217 -6 277 -15z"/>
<path d="M10830 3036 l0 -1416 215 0 215 0 0 581 0 580 36 -3 c36 -3 41 -10
395 -518 198 -283 380 -543 404 -577 l45 -63 260 0 c143 0 260 3 260 6 0 3
-192 269 -426 592 -235 322 -428 591 -431 597 -2 7 22 19 59 29 117 33 214 92
313 191 171 171 235 330 235 585 0 247 -64 413 -220 571 -89 89 -183 146 -315
188 -176 57 -245 64 -662 68 l-383 5 0 -1416z m835 980 c174 -49 270 -133 310
-271 24 -81 17 -238 -14 -317 -30 -78 -103 -156 -183 -196 -103 -51 -166 -64
-350 -69 l-168 -5 0 442 0 442 173 -5 c117 -3 191 -10 232 -21z"/>
<path d="M4695 3446 c-165 -32 -289 -99 -410 -220 -125 -125 -197 -252 -246
-437 -20 -73 -23 -108 -23 -269 -1 -224 16 -305 99 -475 111 -229 287 -380
522 -447 105 -30 317 -32 408 -5 96 29 214 91 290 152 l70 56 3 -90 3 -91 204
0 205 0 0 895 0 895 -205 0 -205 0 0 -100 0 -100 -69 57 c-153 129 -285 182
-466 189 -68 2 -136 -2 -180 -10z m353 -381 c232 -55 381 -270 382 -552 1
-336 -201 -563 -502 -565 -108 0 -195 27 -276 86 -142 105 -214 268 -213 486
0 171 45 295 145 406 116 128 289 180 464 139z"/>
<path d="M9288 3445 c-153 -29 -274 -92 -390 -203 -173 -165 -270 -374 -287
-618 -25 -354 71 -632 291 -839 118 -111 238 -171 398 -201 237 -43 461 18
653 178 l47 39 0 -90 0 -91 210 0 210 0 0 895 0 895 -210 0 -210 0 0 -101 0
-101 -66 61 c-73 67 -206 140 -299 165 -86 24 -253 29 -347 11z m344 -376
c175 -36 323 -186 372 -375 68 -266 -21 -550 -212 -673 -191 -122 -451 -93
-605 68 -163 170 -204 480 -95 709 36 77 138 188 206 225 97 53 220 70 334 46z"/>
</g>
</svg>
