<?xml version="1.0" encoding="utf-8"?>
<!-- Generator: Adobe Illustrator 16.0.0, SVG Export Plug-In . SVG Version: 6.00 Build 0)  -->
<!DOCTYPE svg PUBLIC "-//W3C//DTD SVG 1.1//EN" "http://www.w3.org/Graphics/SVG/1.1/DTD/svg11.dtd">
<svg version="1.1" id="Layer_1" xmlns="http://www.w3.org/2000/svg" xmlns:xlink="http://www.w3.org/1999/xlink" x="0px" y="0px"
	 width="1461px" height="598px" viewBox="0 0 1461 598" enable-background="new 0 0 1461 598" xml:space="preserve">
<path fill="#FFFFFF" stroke="#000000" stroke-width="0.25" stroke-miterlimit="10" d="M205.98,152.97
	c16.01-0.01,32.01-0.46,48.021-0.229c25.069-0.521,50.96,0.3,74.58,9.66c24,9.34,41.63,32.35,45.479,57.69
	c3.061,20.21,0.71,41.97-10.29,59.59c-10.87,18.38-29.8,31.459-50.67,35.709c25.32,34.591,50.39,69.351,75.64,103.98
	c3.801,5.42,7.961,10.6,11.561,16.17c-17.6,0.2-35.2,0.03-52.8,0.08c-21.96-31.48-43.971-62.92-65.891-94.42
	c-1.09-1.601-2.14-3.23-3.149-4.88c0.64,5.92,0.51,11.899-0.29,17.8c-2.21,16.08-10.75,30.87-22.49,41.91
	c-4.54,4.689-9.07,9.39-13.52,14.16c-8.32,9-16.83,17.81-25.2,26.76c-8.98,0.04-17.98,0.18-26.96-0.09
	c13.029-13.28,25.55-27.051,38.489-40.42c4.511-4.87,8.98-9.78,13.591-14.561c6.09-6.55,11.42-13.96,14.31-22.51
	c-5.49-0.2-11.01,0.24-16.49-0.21c-2.64-0.92-2.42-5.18,0.28-5.68c5.95-0.41,11.92,0,17.88-0.2c0.33-5.62,0.641-11.271,0.021-16.88
	c-6.101-0.07-12.21,0-18.311-0.07c-0.479-0.4-1.45-1.19-1.939-1.59c0.33-1.601,0.05-4.32,2.229-4.57
	c5.54-0.45,11.11-0.02,16.67-0.189c-2.79-8.9-7.71-17.101-14.59-23.44c8.71-7.77,18.89-14.28,25.19-24.39
	c16.21,0.41,33.47-0.52,47.68-9.17c9.64-5.65,15.88-16.02,17.45-26.96c1.5-10.67,0.93-22.25-4.74-31.72
	c-5.08-8.72-14.29-14.18-23.75-17c-14.41-4.28-29.61-3.94-44.48-3.79l0.5,1.48c-1.68-1.3-3.72-1.89-5.76-2.28
	c-4.04,4.43-8.16,8.79-12.16,13.26c-6.39,6.95-11.85,14.88-14.5,24.04c5.78,0.16,11.58-0.29,17.341,0.18
	c2.17,0.26,1.92,2.94,2.26,4.54c-0.46,0.41-1.391,1.24-1.851,1.66c-6.35,0.1-12.689,0.01-19.029,0.07
	c-0.65,5.17-0.5,10.38,0.199,15.54c5.851,0.13,11.711-0.16,17.57,0.09c3.391-0.36,4.17,5.18,1.08,6.17
	c-5.689,0.42-11.41,0.01-17.11,0.18c2.801,8.45,7.681,16.16,14.261,22.15c-4.931,4.66-10.511,8.58-15.61,13.06
	c-12.7-11.66-20.02-28.66-21.17-45.75c-1.4-19.78,6.39-39.75,20.18-53.89c-6.569-0.02-13.149-0.01-19.72-0.01
	C205.97,180.32,205.96,166.65,205.98,152.97z"/>
<path fill="#FFFFFF" stroke="#000000" stroke-width="0.25" stroke-miterlimit="10" d="M623.21,152.55
	c22.239,0.01,44.489,0.02,66.739-0.01c10.34,0.85,20.74,1,31.04,2.42c19.771,2.37,39.351,8.2,56.42,18.62
	c16.36,10.08,30.69,23.54,41.48,39.46c11.53,16.79,18.569,36.44,21.44,56.55c4.56,33.48,0.47,69.24-17.211,98.57
	C812.01,386.77,796.11,402.25,778,414.01c-13.37,8.66-28.391,14.771-44.04,17.78c-18.08,3.55-36.57,4.11-54.95,3.96
	c-18.641-0.03-37.28,0.05-55.92-0.04c-0.07-56.91-0.011-113.81-0.03-170.72C623.159,227.51,622.869,190.03,623.21,152.55z"/>
<path fill="#FFFFFF" stroke="#000000" stroke-width="0.25" stroke-miterlimit="10" d="M1082.67,152.56
	c18.42-0.02,36.84,0.02,55.26-0.02c19.37,1.12,39.189,2.64,57.3,10.22c16.66,6.59,30.24,19.96,38.17,35.92
	c8.32,17.05,9.71,36.86,6.42,55.36c-3.88,20.61-16.49,39.41-34.14,50.76c-8.061,5.19-17.13,8.63-26.43,10.771
	c29.189,39.89,58.109,79.989,87.25,119.92c-17.601,0.59-35.24,0.1-52.851,0.25c-26.82-38.431-53.67-76.83-80.45-115.28
	c-2.42-0.03-4.819-0.04-7.22-0.05c-0.12,38.43,0.03,76.859-0.07,115.3c-14.43,0.09-28.85,0.01-43.27,0.04
	c-0.19-60.92-0.03-121.84-0.08-182.75C1082.63,219.52,1082.409,186.04,1082.67,152.56z"/>
<path fill="#FFFFFF" stroke="#000000" stroke-width="0.25" stroke-miterlimit="10" d="M254.332,192.671
	c2.04,0.39,4.08,0.98,5.76,2.28c9.221,10.71,16.16,23.66,18.131,37.77c0.979,7.08,1.01,14.29,0.02,21.37
	c-1.56,9.96-5.11,19.68-10.81,28.02c-6.301,10.11-16.48,16.62-25.19,24.39c-3.79,3.75-7.16,7.91-9.939,12.46
	c4.8,0.18,9.649-0.39,14.42,0.3c1.54,0.94,1.26,2.91,1.55,4.45c-0.48,0.4-1.44,1.2-1.92,1.6c-5.681,0.03-11.36,0.011-17.04,0.021
	c-1.95,5.35-3,10.96-3.46,16.63c6.95,0.25,13.96-0.45,20.87,0.32c2.409,1.439,1.25,4.42-0.2,6.1c-6.79-0.16-13.57-0.05-20.36-0.04
	c0.47,5.47,1.601,10.89,3.84,15.94c5.311,0.13,10.63-0.261,15.92,0.16c2.73,0.42,2.931,4.819,0.311,5.699
	c-4.34,0.38-8.71,0.03-13.07,0.21c2.851,3.95,5.94,7.721,9.021,11.49c-4.61,4.78-9.08,9.69-13.591,14.561
	c-1.56-2.95-4.46-4.83-6.46-7.44c-8.529-10.58-14.699-23.34-16.13-36.95c-2.21-17.55,2.65-35.84,13.13-50.06
	c2.271-3.02,4.551-6.12,7.65-8.34c5.1-4.48,10.68-8.4,15.61-13.06c3.1-3.17,5.97-6.54,8.52-10.17c-3.689-0.02-7.38-0.01-11.07-0.03
	c-0.479-0.41-1.46-1.24-1.949-1.65c0.38-1.51,0.12-3.43,1.58-4.41c4.89-0.72,9.869-0.15,14.8-0.3c2.24-5.29,3.64-10.89,4.27-16.6
	c-6.229-0.04-12.46,0.02-18.689-0.05c-0.49-0.42-1.46-1.25-1.94-1.67c0.36-1.58,0.11-4.28,2.271-4.51
	c6.149-0.47,12.33-0.02,18.5-0.18c-0.57-5.66-1.681-11.27-3.79-16.57c-5.16-0.17-10.36,0.37-15.49-0.29
	c-1.84-1.38-1.85-4.49,0.06-5.83c4.07-0.67,8.23-0.17,12.341-0.29c-2.931-4.24-6.021-8.38-9.631-12.07
	C246.172,201.461,250.292,197.101,254.332,192.671z"/>
<path fill="#FFFFFF" stroke="#000000" stroke-width="0.25" stroke-miterlimit="10" d="M666.329,193.74
	c11.2-0.04,22.44-0.54,33.61,0.57c18.45,1.15,37.05,5.37,53.21,14.61c15.59,9.02,27.88,23.23,35.7,39.37
	c7.4,15.74,10.22,33.37,9.439,50.67c-0.18,12.32-2.659,24.62-7.27,36.05c-10.73,26.19-33.93,46.82-61.02,54.851
	c-20.681,5.87-42.37,5.33-63.66,5.229c0.229-55.02,0.04-110.05,0.1-165.07C666.369,217.93,666.579,205.83,666.329,193.74z"/>
<path fill="#FFFFFF" stroke="#000000" stroke-width="0.25" stroke-miterlimit="10" d="M1125.93,193.64
	c14.7-0.05,29.71-0.55,43.95,3.74c9.01,2.67,17.84,7.61,23.09,15.64c4.72,7.02,6.55,15.65,6.3,24.02
	c0.26,11.19-3.16,22.98-11.43,30.87c-8.94,8.74-21.59,12.25-33.7,13.71c-9.351,1.22-18.811,0.49-28.21,0.68
	C1125.94,252.75,1125.94,223.2,1125.93,193.64z"/>
<path fill="#FFFFFF" stroke="#000000" stroke-width="0.25" stroke-miterlimit="10" d="M227.57,230.01
	c2.65-9.16,8.11-17.09,14.5-24.04c3.61,3.69,6.7,7.83,9.631,12.07c-4.11,0.12-8.271-0.38-12.341,0.29
	c-1.909,1.34-1.899,4.45-0.06,5.83c5.13,0.66,10.33,0.12,15.49,0.29c2.109,5.3,3.22,10.91,3.79,16.57
	c-6.17,0.16-12.351-0.29-18.5,0.18c-2.16,0.23-1.91,2.93-2.271,4.51c0.48,0.42,1.45,1.25,1.94,1.67
	c6.229,0.07,12.46,0.01,18.689,0.05c-0.63,5.71-2.029,11.31-4.27,16.6c-4.931,0.15-9.91-0.42-14.8,0.3c-1.46,0.98-1.2,2.9-1.58,4.41
	c0.489,0.41,1.47,1.24,1.949,1.65c3.69,0.02,7.381,0.01,11.07,0.03c-2.55,3.63-5.42,7-8.52,10.17
	c-6.58-5.99-11.46-13.7-14.261-22.15c5.7-0.17,11.421,0.24,17.11-0.18c3.09-0.99,2.311-6.53-1.08-6.17
	c-5.859-0.25-11.72,0.04-17.57-0.09c-0.699-5.16-0.85-10.37-0.199-15.54c6.34-0.06,12.68,0.03,19.029-0.07
	c0.46-0.42,1.391-1.25,1.851-1.66c-0.34-1.6-0.09-4.28-2.26-4.54C239.15,229.72,233.35,230.17,227.57,230.01z"/>
<path fill="#FFFFFF" stroke="#000000" stroke-width="0.25" stroke-miterlimit="10" d="M465.94,254.15
	c16.09-3.55,33.49-2.78,48.561,4.27c9.869,4.49,18.649,11.18,26.159,18.95c-0.17-6.74-0.13-13.48-0.04-20.22
	c13.92-0.01,27.841-0.01,41.761,0c0.069,59.541,0.17,119.09-0.051,178.62c-13.89-0.05-27.79-0.02-41.68-0.01
	c-0.189-6.06-0.06-12.12-0.08-18.17c-11.88,11.3-26.76,19.891-43.08,22.561c-17.54,2.27-36-0.24-51.56-8.95
	c-18.69-10.41-32.55-28.431-39.391-48.55c-3.949-11.771-5.859-24.23-5.539-36.631c-0.601-22.659,6.289-45.799,20.76-63.43
	C432.84,268.62,448.4,257.95,465.94,254.15z"/>
<path fill="#FFFFFF" stroke="#000000" stroke-width="0.25" stroke-miterlimit="10" d="M906.99,260.98
	c14.61-7.72,31.7-10.29,48.03-8.16c17.37,2.36,33.12,11.86,45.05,24.46c0-6.7-0.04-13.39,0.011-20.09
	c13.97-0.11,27.939-0.01,41.92-0.05c0,59.54,0.01,119.08-0.011,178.61c-13.96-0.03-27.93,0.05-41.89-0.04
	c-0.08-5.96-0.03-11.92-0.03-17.88c-12.08,11.07-26.81,19.8-43.18,22.36c-13.47,1.56-27.431,0.739-40.24-3.96
	c-15.28-5.471-28.6-15.98-37.93-29.211c-11.25-15.399-17.13-34.34-18.011-53.31c-1.319-19.92,2.011-40.57,11.851-58.13
	C880.619,281.25,892.43,268.78,906.99,260.98z"/>
<path fill="#FFFFFF" stroke="#000000" stroke-width="0.25" stroke-miterlimit="10" d="M484.48,290.68
	c11.04-1.29,22.72-0.33,32.521,5.32c14.09,7.93,23.01,23.23,25.199,39.02c2.78,17.9-0.33,37.73-12.319,51.881
	c-15.94,19.569-48.421,22.38-67.431,5.739c-11.779-10.02-18-25.439-18.689-40.689c-1.2-14.521,1.729-29.84,10.479-41.76
	C461.31,300.12,472.26,292.69,484.48,290.68z"/>
<path fill="#FFFFFF" stroke="#000000" stroke-width="0.25" stroke-miterlimit="10" d="M947.289,290.36
	c10.86-0.86,22.23,0.8,31.461,6.93c14.1,8.979,22.289,25.39,23.529,41.8c1.71,16.13-1.46,33.41-11.62,46.42
	c-15.779,21.05-50.279,24.34-69.52,6.3c-9.92-8.909-15.79-21.739-17.31-34.88c-2.551-16.79,0.659-35.109,11.409-48.609
	C922.9,298.32,934.619,291.28,947.289,290.36z"/>
<path fill="#FFFFFF" stroke="#000000" stroke-width="0.25" stroke-miterlimit="10" d="M232.331,319
	c2.779-4.55,6.149-8.71,9.939-12.46c6.88,6.34,11.8,14.54,14.59,23.44c-5.56,0.17-11.13-0.261-16.67,0.189
	c-2.18,0.25-1.899,2.97-2.229,4.57c0.489,0.399,1.46,1.189,1.939,1.59c6.101,0.07,12.21,0,18.311,0.07
	c0.62,5.609,0.31,11.26-0.021,16.88c-5.96,0.2-11.93-0.21-17.88,0.2c-2.7,0.5-2.92,4.76-0.28,5.68c5.48,0.45,11,0.01,16.49,0.21
	c-2.89,8.55-8.22,15.96-14.31,22.51c-3.08-3.77-6.17-7.54-9.021-11.49c4.36-0.18,8.73,0.17,13.07-0.21
	c2.62-0.88,2.42-5.279-0.311-5.699c-5.29-0.421-10.609-0.03-15.92-0.16c-2.239-5.051-3.37-10.471-3.84-15.94
	c6.79-0.01,13.57-0.12,20.36,0.04c1.45-1.68,2.609-4.66,0.2-6.1c-6.91-0.771-13.92-0.07-20.87-0.32c0.46-5.67,1.51-11.28,3.46-16.63
	c5.68-0.01,11.359,0.01,17.04-0.021c0.479-0.399,1.439-1.199,1.92-1.6c-0.29-1.54-0.01-3.51-1.55-4.45
	C241.981,318.61,237.131,319.18,232.331,319z"/>
<path fill="#FFFFFF" stroke="#000000" stroke-width="0.25" stroke-miterlimit="10" d="M242.16,410.19
	c4.449-4.771,8.979-9.471,13.52-14.16c12.76,13.71,25.74,27.189,38.54,40.859c-8.99,0.011-18.07,0.5-27-0.21
	C258.81,427.9,250.51,419.02,242.16,410.19z"/>
<path fill="#FFFFFF" stroke="#000000" stroke-width="0.25" stroke-miterlimit="10" d="M248.705,322.173
	c0,1.766-1.396,3.198-3.118,3.198H231.37c-1.722,0-3.118-1.433-3.118-3.198l0,0c0-1.767,1.396-3.198,3.118-3.198h14.216
	C247.309,318.975,248.705,320.406,248.705,322.173L248.705,322.173z"/>
<path fill="#FFFFFF" stroke="#000000" stroke-width="0.25" stroke-miterlimit="10" d="M248.705,345.141
	c0,1.763-1.396,3.193-3.118,3.193H231.37c-1.722,0-3.118-1.431-3.118-3.193l0,0c0-1.765,1.396-3.194,3.118-3.194h14.216
	C247.309,341.946,248.705,343.376,248.705,345.141L248.705,345.141z"/>
<path fill="#FFFFFF" stroke="#000000" stroke-width="0.25" stroke-miterlimit="10" d="M243.023,345.141
	c0,1.763-1.396,3.193-3.118,3.193h-14.216c-1.722,0-3.118-1.431-3.118-3.193l0,0c0-1.765,1.396-3.194,3.118-3.194h14.216
	C241.627,341.946,243.023,343.376,243.023,345.141L243.023,345.141z"/>
<path fill="#FFFFFF" stroke="#000000" stroke-width="0.25" stroke-miterlimit="10" d="M245.296,322.173
	c0,1.766-1.396,3.198-3.118,3.198h-14.216c-1.722,0-3.118-1.433-3.118-3.198l0,0c0-1.767,1.396-3.198,3.118-3.198h14.216
	C243.9,318.975,245.296,320.406,245.296,322.173L245.296,322.173z"/>
<path fill="#FFFFFF" stroke="#000000" stroke-width="0.25" stroke-miterlimit="10" d="M248.705,367.358
	c0,1.766-1.396,3.198-3.118,3.198H231.37c-1.722,0-3.118-1.433-3.118-3.198l0,0c0-1.767,1.396-3.198,3.118-3.198h14.216
	C247.309,364.16,248.705,365.592,248.705,367.358L248.705,367.358z"/>
<path fill="#FFFFFF" stroke="#000000" stroke-width="0.25" stroke-miterlimit="10" d="M245.296,367.358
	c0,1.766-1.396,3.198-3.118,3.198h-14.216c-1.722,0-3.118-1.433-3.118-3.198l0,0c0-1.767,1.396-3.198,3.118-3.198h14.216
	C243.9,364.16,245.296,365.592,245.296,367.358L245.296,367.358z"/>
<path fill="#FFFFFF" stroke="#000000" stroke-width="0.25" stroke-miterlimit="10" d="M260.635,267.084
	c0,1.766-1.396,3.198-3.118,3.198h-14.216c-1.722,0-3.118-1.433-3.118-3.198l0,0c0-1.767,1.396-3.198,3.118-3.198h14.216
	C259.24,263.886,260.635,265.318,260.635,267.084L260.635,267.084z"/>
<path fill="#FFFFFF" stroke="#000000" stroke-width="0.25" stroke-miterlimit="10" d="M257.227,267.084
	c0,1.766-1.396,3.198-3.118,3.198h-14.216c-1.722,0-3.118-1.433-3.118-3.198l0,0c0-1.767,1.396-3.198,3.118-3.198h14.216
	C255.831,263.886,257.227,265.318,257.227,267.084L257.227,267.084z"/>
<path fill="#FFFFFF" stroke="#000000" stroke-width="0.25" stroke-miterlimit="10" d="M260.635,244.114
	c0,1.766-1.396,3.198-3.118,3.198h-14.216c-1.722,0-3.118-1.433-3.118-3.198l0,0c0-1.767,1.396-3.198,3.118-3.198h14.216
	C259.24,240.916,260.635,242.348,260.635,244.114L260.635,244.114z"/>
<path fill="#FFFFFF" stroke="#000000" stroke-width="0.25" stroke-miterlimit="10" d="M257.227,244.114
	c0,1.766-1.396,3.198-3.118,3.198h-14.216c-1.722,0-3.118-1.433-3.118-3.198l0,0c0-1.767,1.396-3.198,3.118-3.198h14.216
	C255.831,240.916,257.227,242.348,257.227,244.114L257.227,244.114z"/>
<path fill="#FFFFFF" stroke="#000000" stroke-width="0.25" stroke-miterlimit="10" d="M260.635,221.165
	c0,1.766-1.396,3.198-3.118,3.198h-14.216c-1.722,0-3.118-1.433-3.118-3.198l0,0c0-1.767,1.396-3.198,3.118-3.198h14.216
	C259.24,217.966,260.635,219.398,260.635,221.165L260.635,221.165z"/>
<path fill="#FFFFFF" stroke="#000000" stroke-width="0.25" stroke-miterlimit="10" d="M257.227,221.165
	c0,1.766-1.396,3.198-3.118,3.198h-14.216c-1.722,0-3.118-1.433-3.118-3.198l0,0c0-1.767,1.396-3.198,3.118-3.198h14.216
	C255.831,217.966,257.227,219.398,257.227,221.165L257.227,221.165z"/>
<path fill="#FFFFFF" stroke="#000000" stroke-width="0.25" stroke-miterlimit="10" d="M242.264,233.14
	c0,1.766-1.396,3.198-3.118,3.198h-14.216c-1.722,0-3.118-1.433-3.118-3.198l0,0c0-1.767,1.396-3.198,3.118-3.198h14.216
	C240.868,229.941,242.264,231.373,242.264,233.14L242.264,233.14z"/>
<path fill="#FFFFFF" stroke="#000000" stroke-width="0.25" stroke-miterlimit="10" d="M247.706,233.14
	c0,1.766-1.396,3.198-3.118,3.198h-14.216c-1.722,0-3.118-1.433-3.118-3.198l0,0c0-1.767,1.396-3.198,3.118-3.198h14.216
	C246.31,229.941,247.706,231.373,247.706,233.14L247.706,233.14z"/>
<path fill="#3C3C3C" stroke="#000000" stroke-width="0.25" stroke-miterlimit="10" d="M242.264,255.536
	c0,1.766-1.396,3.198-3.118,3.198h-14.216c-1.722,0-3.118-1.433-3.118-3.198l0,0c0-1.767,1.396-3.198,3.118-3.198h14.216
	C240.868,252.338,242.264,253.77,242.264,255.536L242.264,255.536z"/>
<path fill="#3C3C3C" stroke="#000000" stroke-width="0.25" stroke-miterlimit="10" d="M247.706,255.536
	c0,1.766-1.396,3.198-3.118,3.198h-14.216c-1.722,0-3.118-1.433-3.118-3.198l0,0c0-1.767,1.396-3.198,3.118-3.198h14.216
	C246.31,252.338,247.706,253.77,247.706,255.536L247.706,255.536z"/>
<path fill="#3C3C3C" stroke="#000000" stroke-width="0.25" stroke-miterlimit="10" d="M242.264,255.536
	c0,1.766-1.396,3.198-3.118,3.198h-14.216c-1.722,0-3.118-1.433-3.118-3.198l0,0c0-1.767,1.396-3.198,3.118-3.198h14.216
	C240.868,252.338,242.264,253.77,242.264,255.536L242.264,255.536z"/>
<path fill="#3C3C3C" stroke="#000000" stroke-width="0.25" stroke-miterlimit="10" d="M247.706,255.536
	c0,1.766-1.396,3.198-3.118,3.198h-14.216c-1.722,0-3.118-1.433-3.118-3.198l0,0c0-1.767,1.396-3.198,3.118-3.198h14.216
	C246.31,252.338,247.706,253.77,247.706,255.536L247.706,255.536z"/>
<path fill="#FFFFFF" stroke="#000000" stroke-width="0.25" stroke-miterlimit="10" d="M241.264,255.37
	c0,1.857-1.396,3.365-3.118,3.365h-14.216c-1.722,0-3.118-1.508-3.118-3.365l0,0c0-1.859,1.396-3.366,3.118-3.366h14.216
	C239.868,252.004,241.264,253.511,241.264,255.37L241.264,255.37z"/>
<path fill="#FFFFFF" stroke="#000000" stroke-width="0.25" stroke-miterlimit="10" d="M247.706,255.37
	c0,1.857-1.396,3.365-3.118,3.365h-14.216c-1.722,0-3.118-1.508-3.118-3.365l0,0c0-1.859,1.396-3.366,3.118-3.366h14.216
	C246.31,252.004,247.706,253.511,247.706,255.37L247.706,255.37z"/>
<path fill="#FFFFFF" stroke="#000000" stroke-width="0.25" stroke-miterlimit="10" d="M257.227,333.252
	c0,1.857-1.396,3.365-3.118,3.365h-14.216c-1.722,0-3.118-1.508-3.118-3.365l0,0c0-1.859,1.396-3.365,3.118-3.365h14.216
	C255.831,329.887,257.227,331.393,257.227,333.252L257.227,333.252z"/>
<path fill="#FFFFFF" stroke="#000000" stroke-width="0.25" stroke-miterlimit="10" d="M262.669,333.252
	c0,1.857-1.396,3.365-3.118,3.365h-14.216c-1.722,0-3.118-1.508-3.118-3.365l0,0c0-1.859,1.396-3.365,3.118-3.365h14.216
	C261.273,329.887,262.669,331.393,262.669,333.252L262.669,333.252z"/>
<path fill="#FFFFFF" stroke="#000000" stroke-width="0.25" stroke-miterlimit="10" d="M257.325,355.981
	c0,1.857-1.396,3.365-3.118,3.365H239.99c-1.722,0-3.118-1.508-3.118-3.365l0,0c0-1.859,1.396-3.365,3.118-3.365h14.216
	C255.929,352.616,257.325,354.122,257.325,355.981L257.325,355.981z"/>
<path fill="#FFFFFF" stroke="#000000" stroke-width="0.25" stroke-miterlimit="10" d="M262.767,355.981
	c0,1.857-1.396,3.365-3.118,3.365h-14.216c-1.722,0-3.118-1.508-3.118-3.365l0,0c0-1.859,1.396-3.365,3.118-3.365h14.216
	C261.371,352.616,262.767,354.122,262.767,355.981L262.767,355.981z"/>
</svg>
